{"title":"T.I. Ft. B.o.B, Problem &amp; Trae Tha Truth - Problems [Music V","uid":8695716,"size":131365407,"categoryP":"video","categoryS":"music_videos","magnet":"?xt=urn:btih:4011220a114f1db4e8d8424f82fe6c25dcc7d589&amp;dn=T.I.+Ft.+B.o.B%2C+Problem+%26amp%3B+Trae+Tha+Truth+-+Problems+%5BMusic+V&amp;tr=udp%3A%2F%2Ftracker.openbittorrent.com%3A80&amp;tr=udp%3A%2F%2Fopen.demonii.com%3A1337&amp;tr=udp%3A%2F%2Ftracker.coppersurfer.tk%3A6969&amp;tr=udp%3A%2F%2Fexodus.desync.com%3A6969","seeders":1,"leechers":0,"uploader":"Sbyky","files":-1,"time":1373973453,"description":"[IMG]http://yuq.me/users/18/139/is0l9j6JDn.png[/IMG]\n\nGeneral\nComplete name                            : T.I. Ft. B.o.B, Problem &amp; Trae Tha Truth - Problems [Music Video] 1080p [Sbyky].mp4\nFormat                                   : MPEG-4\nFormat profile                           : Base Media / Version 2\nCodec ID                                 : mp42\nFile size                                : 125 MiB\nDuration                                 : 5mn 6s\nOverall bit rate mode                    : Variable\nOverall bit rate                         : 3 428 Kbps\nEncoded date                             : UTC 2013-07-10 17:31:35\nTagged date                              : UTC 2013-07-10 17:31:35\n\nVideo\nID                                       : 1\nFormat                                   : AVC\nFormat/Info                              : Advanced Video Codec\nFormat profile                           : &lt;a class=&quot;__cf_email__&quot; href=&quot;/cdn-cgi/l/email-protection&quot; data-cfemail=&quot;e7af8e808fa7abd3c9d7&quot;&gt;[email&amp;#160;protected]&lt;/a&gt;&lt;script cf-hash='f9e31' type=&quot;text/javascript&quot;&gt;\n/* &lt;![CDATA[ */!function(){try{var t=&quot;currentScript&quot;in document?document.currentScript:function(){for(var t=document.getElementsByTagName(&quot;script&quot;),e=t.length;e--;)if(t[e].getAttribute(&quot;cf-hash&quot;))return t[e]}();if(t&amp;&amp;t.previousSibling){var e,r,n,i,c=t.previousSibling,a=c.getAttribute(&quot;data-cfemail&quot;);if(a){for(e=&quot;&quot;,r=parseInt(a.substr(0,2),16),n=2;a.length-n;n+=2)i=parseInt(a.substr(n,2),16)^r,e+=String.fromCharCode(i);e=document.createTextNode(e),c.parentNode.replaceChild(e,c)}}}catch(u){}}();/* ]]&gt; */&lt;/script&gt;\nFormat settings, CABAC                   : Yes\nFormat settings, ReFrames                : 1 frame\nFormat settings, GOP                     : M=1, N=48\nCodec ID                                 : avc1\nCodec ID/Info                            : Advanced Video Coding\nDuration                                 : 5mn 6s\nBit rate                                 : 3 234 Kbps\nMaximum bit rate                         : 7 312 Kbps\nWidth                                    : 1 920 pixels\nHeight                                   : 1 080 pixels\nDisplay aspect ratio                     : 16:9\nFrame rate mode                          : Constant\nFrame rate                               : 23.976 fps\nColor space                              : YUV\nChroma subsampling                       : 4:2:0\nBit depth                                : 8 bits\nScan type                                : Progressive\nBits/(Pixel*Frame)                       : 0.065\nStream size                              : 118 MiB (94%)\nTagged date                              : UTC 2013-07-10 17:31:42\n\nAudio\nID                                       : 2\nFormat                                   : AAC\nFormat/Info                              : Advanced Audio Codec\nFormat profile                           : LC\nCodec ID                                 : 40\nDuration                                 : 5mn 6s\nBit rate mode                            : Variable\nBit rate                                 : 192 Kbps\nMaximum bit rate                         : 201 Kbps\nChannel(s)                               : 2 channels\nChannel positions                        : Front: L R\nSampling rate                            : 44.1 KHz\nCompression mode                         : Lossy\nStream size                              : 7.02 MiB (6%)\nTitle                                    : IsoMedia File Produced by Google, 5-11-2011\nEncoded date                             : UTC 2013-07-10 17:31:40\nTagged date                              : UTC 2013-07-10 17:31:42\n\nShared By Sbyky\n[IMG]http://yuq.me/users/18/139/0aq32UMZvX.gif[/IMG]\n[IMG]http://yuq.me/users/18/139/bQg62viaEG.gif[/IMG]","torrent":{"xt":"urn:btih:4011220a114f1db4e8d8424f82fe6c25dcc7d589","amp;dn":"T.I.+Ft.+B.o.B%2C+Problem+%26amp%3B+Trae+Tha+Truth+-+Problems+%5BMusic+V","amp;tr":["udp%3A%2F%2Ftracker.openbittorrent.com%3A80","udp%3A%2F%2Fopen.demonii.com%3A1337","udp%3A%2F%2Ftracker.coppersurfer.tk%3A6969","udp%3A%2F%2Fexodus.desync.com%3A6969"],"infoHash":"4011220a114f1db4e8d8424f82fe6c25dcc7d589","infoHashBuffer":{"type":"Buffer","data":[64,17,34,10,17,79,29,180,232,216,66,79,130,254,108,37,220,199,213,137]},"announce":[],"urlList":[]}}